<svg xmlns="http://www.w3.org/2000/svg" version="1.1" xmlns:xlink="http://www.w3.org/1999/xlink" width="2000" height="96" viewBox="0 0 2000 96"><svg xml:space="preserve" width="2000" height="96" data-version="2" data-id="lg_v7hN1C7vjZoaTkHXan" viewBox="0 0 521 96" x="0" y="0"><rect width="100%" height="100%" fill="transparent"></rect><path d="M129.556 81.665h-19.78V9.945h19.78v34.17q9.16-7.02 17.11-15.59 7.94-8.57 13.67-18.63h13.49q-5.28 9.02-12.1 16.84-6.82 7.82-14.84 14.49l28.64 40.44h-20.62l-21.57-30.48q-.94.65-1.87 1.25-.92.59-1.91 1.19Z"></path><rect width="65.75" height="71.77" x="-32.88" y="-35.88" fill="none" rx="0" ry="0" transform="translate(143.15 46.28)"></rect><path d="M200.076 10.245q0 1.89-.72 3.59-.72 1.69-1.97 2.94-1.24 1.24-2.94 1.96-1.69.73-3.58.73-1.9 0-3.56-.73-1.67-.72-2.92-1.96-1.24-1.25-1.96-2.94-.73-1.7-.73-3.59t.73-3.56q.72-1.67 1.96-2.91 1.25-1.25 2.92-1.97 1.66-.72 3.56-.72 1.89 0 3.58.72 1.7.72 2.94 1.97 1.25 1.24 1.97 2.91.72 1.67.72 3.56m-.75 71.42h-16.88v-57.47h16.88Z"></path><rect width="18.38" height="80.58" x="-9.19" y="-40.29" fill="none" rx="0" ry="0" transform="translate(191.39 41.88)"></rect><path d="M235.086 81.665h-16.88v-50.85h-10.46v-6.67h10.46V2.975h16.88v21.17h17.44v6.67h-17.44Z"></path><rect width="44.78" height="78.69" x="-22.39" y="-39.34" fill="none" rx="0" ry="0" transform="translate(230.64 42.82)"></rect><path d="M309.446 63.285q0 3.79-1.09 6.73-1.1 2.94-2.99 5.1-1.89 2.17-4.48 3.64-2.59 1.47-5.56 2.36-2.96.9-6.2 1.3t-6.42.4q-4.29 0-7.57-.55-3.29-.55-6.28-1.77t-5.95-3.16q-2.96-1.94-6.6-4.73l9.81-8.02q1.35 2.54 3.56 4.61 2.22 2.06 4.61 3.56 2.39 1.49 4.63 2.29 2.24.8 3.64.8 1.14 0 2.59-.08 1.44-.07 2.94-.3 1.49-.22 2.93-.67 1.45-.45 2.57-1.22 1.12-.77 1.79-1.94.67-1.17.67-2.82 0-1.69-.87-2.96t-2.26-2.22q-1.4-.94-3.19-1.59-1.79-.65-3.61-1.15-1.82-.49-3.51-.87-1.7-.37-2.94-.72-2.29-.65-4.83-1.32t-5.03-1.54q-2.49-.88-4.76-2.07-2.27-1.2-3.98-2.86-1.72-1.67-2.74-3.94-1.02-2.27-1.02-5.3 0-5.58 2.21-9.34 2.22-3.76 5.85-6.03 3.64-2.26 8.27-3.21 4.63-.95 9.42-.95 3.28 0 6.92.68 3.63.67 7.07 1.99 3.44 1.32 6.43 3.21 2.98 1.89 4.98 4.33l-9.82 8.07q-1.09-2.99-2.86-5.13-1.77-2.14-3.83-3.51-2.07-1.37-4.24-2.02-2.16-.64-4.01-.64-1.79 0-4.03.15-2.24.14-4.21.84-1.97.7-3.34 2.12-1.37 1.42-1.37 3.91 0 1.79.83 3.06.82 1.27 2.16 2.19 1.35.92 3.06 1.55 1.72.62 3.52 1.09 1.79.48 3.48.82 1.7.35 3.04.75 2.29.65 4.86 1.32 2.56.67 5.05 1.55 2.49.87 4.81 2.04 2.31 1.17 4.06 2.86 1.74 1.69 2.79 3.96 1.04 2.27 1.04 5.35"></path><rect width="53.14" height="60.07" x="-26.57" y="-30.04" fill="none" rx="0" ry="0" transform="translate(283.38 53.28)"></rect><path d="M317.116 57.065q0-3.94.67-8.17.68-4.23 1.95-8.47 1.27-4.23 3.06-8.36 1.79-4.14 4.03-7.92h12.31q-1.25 3.73-2.22 7.79-.97 4.06-1.64 8.12-.68 4.06-1.05 7.94-.37 3.89-.37 7.23 0 1.94.17 4.15.17 2.22.62 4.44.45 2.21 1.27 4.26.82 2.04 2.12 3.61 1.29 1.57 3.16 2.49 1.87.92 4.41.92 2.49 0 4.46-1.12 1.96-1.12 3.46-2.94 1.49-1.82 2.54-4.16 1.04-2.34 1.72-4.81.67-2.46.99-4.83.33-2.36.33-4.26v-28.83h16.83v57.52h-6.47l-7.72-13.4q-1.45 3.34-3.51 6.06-2.07 2.71-4.71 4.65-2.64 1.95-5.85 2.99-3.22 1.05-6.95 1.05-5.98 0-10.41-1.95-4.43-1.94-7.37-5.37-2.94-3.44-4.38-8.2-1.45-4.75-1.45-10.43"></path><rect width="58.82" height="58.87" x="-29.41" y="-29.43" fill="none" rx="0" ry="0" transform="translate(347.03 54.08)"></rect><path d="M448.806 48.695q0 5.83-1.42 12.15-1.42 6.33-3.96 12.41-2.54 6.07-6.08 11.43-3.54 5.35-7.77 9.23l-6.32-3.43q1.34-2.49 2.54-5.58 1.19-3.09 2.16-6.55.97-3.46 1.75-7.15.77-3.68 1.29-7.29t.8-7.03q.27-3.41.27-6.35 0-1.94-.15-4.15-.15-2.22-.62-4.44-.47-2.21-1.27-4.26-.8-2.04-2.12-3.58-1.32-1.55-3.19-2.49-1.86-.95-4.4-.95-2.49 0-4.44 1.12-1.94 1.12-3.43 2.94-1.5 1.82-2.57 4.16-1.07 2.34-1.74 4.81-.67 2.46-.97 4.85-.3 2.39-.3 4.29v28.83h-16.88v-57.52h6.47l7.72 13.4q1.39-3.34 3.49-6.08 2.09-2.74 4.73-4.68 2.64-1.94 5.85-2.99 3.21-1.05 6.95-1.05 5.97 0 10.41 1.95 4.43 1.94 7.37 5.4 2.94 3.46 4.38 8.22 1.45 4.75 1.45 10.38"></path><rect width="58.82" height="71.17" x="-29.41" y="-35.59" fill="none" rx="0" ry="0" transform="translate(419.9 58.83)"></rect><path d="M473.756 54.375q3.09.7 6.17 1.1 3.09.39 6.23.39 3.29 0 6.1-.62 2.81-.62 4.88-2.09 2.07-1.47 3.26-3.91 1.2-2.44 1.2-6.08 0-2.94-.8-5.38t-2.36-4.18q-1.57-1.74-3.86-2.71-2.3-.97-5.33-.97-2.84 0-5.11 1.04-2.26 1.05-3.98 2.82-1.72 1.76-2.94 4.1t-2.02 4.88q-.79 2.54-1.14 5.13-.35 2.59-.35 4.89v.79q0 .4.05.8m41.48-11.36q0 3.54-1.14 6.3-1.15 2.77-3.11 4.86-1.97 2.09-4.56 3.54-2.59 1.44-5.53 2.36-2.94.92-6.05 1.32t-6.05.4q-3.74 0-7.37-.52-3.64-.53-7.17-1.67.54 3.29 1.74 6.25 1.19 2.96 3.19 5.18 1.99 2.22 4.9 3.51 2.92 1.3 6.9 1.3 2.64 0 5.03-.8t4.38-2.24q2-1.45 3.51-3.44 1.52-1.99 2.47-4.43l7.27 2.69q-1.64 3.93-4.51 6.8-2.86 2.86-6.47 4.73-3.61 1.86-7.67 2.76-4.06.9-8.04.9-6.58 0-12.16-2.22-5.57-2.21-9.61-6.2-4.03-3.98-6.32-9.51-2.3-5.53-2.3-12.1 0-6.58 2.3-12.11 2.29-5.53 6.32-9.51 4.04-3.98 9.61-6.2 5.58-2.22 12.16-2.22 3.18 0 6.52.45 3.34.45 6.47 1.42 3.14.97 5.93 2.52 2.79 1.54 4.86 3.81 2.06 2.26 3.28 5.25 1.22 2.99 1.22 6.82"></path><rect width="58.67" height="60.07" x="-29.34" y="-30.04" fill="none" rx="0" ry="0" transform="translate(486.4 53.28)"></rect><path d="m26.301 55.651 16.187 5.393-2.229 2.784-16.187-5.394zm25.517 8.177 16.187-5.394-2.229-2.783-16.187 5.393zm35.23-20.01c-.021.025-.03.054-.05.079L48.14 87.304a2.431 1.568 0 0 1-4.207 0L5.08 43.898c-.023-.025-.03-.054-.05-.079a2.84 1.832 0 0 1-.207-.368 2.38 1.535 0 0 1-.046-.23c-.005-.052-.014-.102-.013-.152.005-.082.026-.162.049-.243.014-.047.02-.093.04-.14.003-.01.003-.022.01-.034l14.559-30.385a2.43 1.567 0 0 1 4.642 0l14.03 29.283h15.888l14.033-29.283a2.428 1.566 0 0 1 4.64 0l14.561 30.385c.005.012.003.022.01.034.02.047.026.094.039.14a.98.98 0 0 1 .048.243c.003.05-.006.102-.013.152a1.98 1.277 0 0 1-.115.382 2.724 1.757 0 0 1-.137.215m-27.984-2.27h2.758l6.193-12.791a2.428 1.566 0 0 1 4.636 0l6.193 12.792h2.758l-11.27-23.516zm-48.589 0h2.757l6.193-12.791a2.428 1.566 0 0 1 4.636 0l6.193 12.792h2.757L21.743 18.033zm70.214 3.133H11.388l27.575 30.806H53.11z"></path></svg></svg>